<svg xmlns="http://www.w3.org/2000/svg" version="1.1" xmlns:xlink="http://www.w3.org/1999/xlink" xmlns:svgjs="http://svgjs.com/svgjs" width="1440" height="650" preserveAspectRatio="none" viewBox="0 0 1440 560"><g mask="url(&quot;#SvgjsMask1000&quot;)" fill="none"><rect width="1440" height="560" x="0" y="0" fill="#0e2a47"></rect><path d="M-73.66 405.26L-73.66 405.26" stroke="#132e65" stroke-width="1.5"></path><path d="M-73.66 405.26L-100.19 508.29" stroke="#132e65" stroke-width="1.5"></path><path d="M-73.66 405.26L107.7 353.6" stroke="#132e65" stroke-width="1.5"></path><path d="M-100.19 508.29L-100.19 508.29" stroke="#132e65" stroke-width="1.5"></path><path d="M-100.19 508.29L-76.7 675.3" stroke="#132e65" stroke-width="1.5"></path><path d="M-100.19 508.29L64.68 557.89" stroke="#132e65" stroke-width="1.5"></path><path d="M-76.7 675.3L-76.7 675.3" stroke="#132e65" stroke-width="1.5"></path><path d="M-76.7 675.3L64.68 557.89" stroke="#132e65" stroke-width="1.5"></path><path d="M107.7 353.6L107.7 353.6" stroke="#132e65" stroke-width="1.5"></path><path d="M107.7 353.6L224.07 396.27" stroke="#132e65" stroke-width="1.5"></path><path d="M107.7 353.6L64.68 557.89" stroke="#132e65" stroke-width="1.5"></path><path d="M107.7 353.6L-100.19 508.29" stroke="#132e65" stroke-width="1.5"></path><path d="M107.7 353.6L397.3 390.46" stroke="#132e65" stroke-width="1.5"></path><path d="M64.68 557.89L64.68 557.89" stroke="#132e65" stroke-width="1.5"></path><path d="M64.68 557.89L107.08 655.53" stroke="#132e65" stroke-width="1.5"></path><path d="M107.08 655.53L107.08 655.53" stroke="#132e65" stroke-width="1.5"></path><path d="M107.08 655.53L222.32 660.12" stroke="#132e65" stroke-width="1.5"></path><path d="M107.08 655.53L-76.7 675.3" stroke="#132e65" stroke-width="1.5"></path><path d="M107.08 655.53L353.42 649.45" stroke="#132e65" stroke-width="1.5"></path><path d="M107.08 655.53L-100.19 508.29" stroke="#132e65" stroke-width="1.5"></path><path d="M224.07 396.27L224.07 396.27" stroke="#132e65" stroke-width="1.5"></path><path d="M224.07 396.27L397.3 390.46" stroke="#132e65" stroke-width="1.5"></path><path d="M224.07 396.27L64.68 557.89" stroke="#132e65" stroke-width="1.5"></path><path d="M222.32 660.12L222.32 660.12" stroke="#132e65" stroke-width="1.5"></path><path d="M222.32 660.12L353.42 649.45" stroke="#132e65" stroke-width="1.5"></path><path d="M222.32 660.12L64.68 557.89" stroke="#132e65" stroke-width="1.5"></path><path d="M397.3 390.46L397.3 390.46" stroke="#132e65" stroke-width="1.5"></path><path d="M397.3 390.46L520.18 371.64" stroke="#132e65" stroke-width="1.5"></path><path d="M353.42 649.45L353.42 649.45" stroke="#132e65" stroke-width="1.5"></path><path d="M353.42 649.45L519.52 651.85" stroke="#132e65" stroke-width="1.5"></path><path d="M353.42 649.45L559.11 560.77" stroke="#132e65" stroke-width="1.5"></path><path d="M520.18 371.64L520.18 371.64" stroke="#132e65" stroke-width="1.5"></path><path d="M520.18 371.64L696.2 372.26" stroke="#132e65" stroke-width="1.5"></path><path d="M520.18 371.64L559.11 560.77" stroke="#132e65" stroke-width="1.5"></path><path d="M520.18 371.64L663 223.83" stroke="#132e65" stroke-width="1.5"></path><path d="M520.18 371.64L642.73 555.99" stroke="#132e65" stroke-width="1.5"></path><path d="M559.11 560.77L559.11 560.77" stroke="#132e65" stroke-width="1.5"></path><path d="M559.11 560.77L642.73 555.99" stroke="#132e65" stroke-width="1.5"></path><path d="M559.11 560.77L519.52 651.85" stroke="#132e65" stroke-width="1.5"></path><path d="M519.52 651.85L519.52 651.85" stroke="#132e65" stroke-width="1.5"></path><path d="M519.52 651.85L642.73 555.99" stroke="#132e65" stroke-width="1.5"></path><path d="M519.52 651.85L703.47 708" stroke="#132e65" stroke-width="1.5"></path><path d="M663 223.83L663 223.83" stroke="#132e65" stroke-width="1.5"></path><path d="M663 223.83L802.81 241.78" stroke="#132e65" stroke-width="1.5"></path><path d="M663 223.83L696.2 372.26" stroke="#132e65" stroke-width="1.5"></path><path d="M696.2 372.26L696.2 372.26" stroke="#132e65" stroke-width="1.5"></path><path d="M696.2 372.26L817.41 386.82" stroke="#132e65" stroke-width="1.5"></path><path d="M642.73 555.99L642.73 555.99" stroke="#132e65" stroke-width="1.5"></path><path d="M642.73 555.99L703.47 708" stroke="#132e65" stroke-width="1.5"></path><path d="M642.73 555.99L696.2 372.26" stroke="#132e65" stroke-width="1.5"></path><path d="M642.73 555.99L857.04 520.24" stroke="#132e65" stroke-width="1.5"></path><path d="M703.47 708L703.47 708" stroke="#132e65" stroke-width="1.5"></path><path d="M703.47 708L858.13 670.07" stroke="#132e65" stroke-width="1.5"></path><path d="M802.81 241.78L802.81 241.78" stroke="#132e65" stroke-width="1.5"></path><path d="M802.81 241.78L817.41 386.82" stroke="#132e65" stroke-width="1.5"></path><path d="M802.81 241.78L696.2 372.26" stroke="#132e65" stroke-width="1.5"></path><path d="M802.81 241.78L977.97 229.76" stroke="#132e65" stroke-width="1.5"></path><path d="M802.81 241.78L952.42 64.84" stroke="#132e65" stroke-width="1.5"></path><path d="M802.81 241.78L999.56 390.74" stroke="#132e65" stroke-width="1.5"></path><path d="M817.41 386.82L817.41 386.82" stroke="#132e65" stroke-width="1.5"></path><path d="M817.41 386.82L857.04 520.24" stroke="#132e65" stroke-width="1.5"></path><path d="M817.41 386.82L999.56 390.74" stroke="#132e65" stroke-width="1.5"></path><path d="M817.41 386.82L663 223.83" stroke="#132e65" stroke-width="1.5"></path><path d="M857.04 520.24L857.04 520.24" stroke="#132e65" stroke-width="1.5"></path><path d="M857.04 520.24L997.25 556.46" stroke="#132e65" stroke-width="1.5"></path><path d="M857.04 520.24L858.13 670.07" stroke="#132e65" stroke-width="1.5"></path><path d="M858.13 670.07L858.13 670.07" stroke="#132e65" stroke-width="1.5"></path><path d="M858.13 670.07L998.89 667.81" stroke="#132e65" stroke-width="1.5"></path><path d="M972.21 -72.86L972.21 -72.86" stroke="#132e65" stroke-width="1.5"></path><path d="M972.21 -72.86L952.42 64.84" stroke="#132e65" stroke-width="1.5"></path><path d="M972.21 -72.86L1138.66 -40.72" stroke="#132e65" stroke-width="1.5"></path><path d="M972.21 -72.86L1118.87 48.87" stroke="#132e65" stroke-width="1.5"></path><path d="M972.21 -72.86L977.97 229.76" stroke="#132e65" stroke-width="1.5"></path><path d="M972.21 -72.86L1297.77 -99.96" stroke="#132e65" stroke-width="1.5"></path><path d="M972.21 -72.86L1160.68 213.11" stroke="#132e65" stroke-width="1.5"></path><path d="M952.42 64.84L952.42 64.84" stroke="#132e65" stroke-width="1.5"></path><path d="M952.42 64.84L977.97 229.76" stroke="#132e65" stroke-width="1.5"></path><path d="M952.42 64.84L1118.87 48.87" stroke="#132e65" stroke-width="1.5"></path><path d="M952.42 64.84L1138.66 -40.72" stroke="#132e65" stroke-width="1.5"></path><path d="M977.97 229.76L977.97 229.76" stroke="#132e65" stroke-width="1.5"></path><path d="M977.97 229.76L999.56 390.74" stroke="#132e65" stroke-width="1.5"></path><path d="M977.97 229.76L1160.68 213.11" stroke="#132e65" stroke-width="1.5"></path><path d="M977.97 229.76L1159.37 357.23" stroke="#132e65" stroke-width="1.5"></path><path d="M977.97 229.76L817.41 386.82" stroke="#132e65" stroke-width="1.5"></path><path d="M999.56 390.74L999.56 390.74" stroke="#132e65" stroke-width="1.5"></path><path d="M999.56 390.74L1159.37 357.23" stroke="#132e65" stroke-width="1.5"></path><path d="M997.25 556.46L997.25 556.46" stroke="#132e65" stroke-width="1.5"></path><path d="M997.25 556.46L998.89 667.81" stroke="#132e65" stroke-width="1.5"></path><path d="M997.25 556.46L1102.39 646.84" stroke="#132e65" stroke-width="1.5"></path><path d="M997.25 556.46L999.56 390.74" stroke="#132e65" stroke-width="1.5"></path><path d="M997.25 556.46L858.13 670.07" stroke="#132e65" stroke-width="1.5"></path><path d="M998.89 667.81L998.89 667.81" stroke="#132e65" stroke-width="1.5"></path><path d="M998.89 667.81L1102.39 646.84" stroke="#132e65" stroke-width="1.5"></path><path d="M998.89 667.81L857.04 520.24" stroke="#132e65" stroke-width="1.5"></path><path d="M1138.66 -40.72L1138.66 -40.72" stroke="#132e65" stroke-width="1.5"></path><path d="M1138.66 -40.72L1118.87 48.87" stroke="#132e65" stroke-width="1.5"></path><path d="M1138.66 -40.72L1297.77 -99.96" stroke="#132e65" stroke-width="1.5"></path><path d="M1138.66 -40.72L1272.86 110.79" stroke="#132e65" stroke-width="1.5"></path><path d="M1138.66 -40.72L1160.68 213.11" stroke="#132e65" stroke-width="1.5"></path><path d="M1118.87 48.87L1118.87 48.87" stroke="#132e65" stroke-width="1.5"></path><path d="M1118.87 48.87L1272.86 110.79" stroke="#132e65" stroke-width="1.5"></path><path d="M1160.68 213.11L1160.68 213.11" stroke="#132e65" stroke-width="1.5"></path><path d="M1160.68 213.11L1299.15 200.62" stroke="#132e65" stroke-width="1.5"></path><path d="M1160.68 213.11L1159.37 357.23" stroke="#132e65" stroke-width="1.5"></path><path d="M1160.68 213.11L1272.86 110.79" stroke="#132e65" stroke-width="1.5"></path><path d="M1160.68 213.11L1118.87 48.87" stroke="#132e65" stroke-width="1.5"></path><path d="M1160.68 213.11L999.56 390.74" stroke="#132e65" stroke-width="1.5"></path><path d="M1159.37 357.23L1159.37 357.23" stroke="#132e65" stroke-width="1.5"></path><path d="M1159.37 357.23L1295.92 489.76" stroke="#132e65" stroke-width="1.5"></path><path d="M1159.37 357.23L1299.15 200.62" stroke="#132e65" stroke-width="1.5"></path><path d="M1102.39 646.84L1102.39 646.84" stroke="#132e65" stroke-width="1.5"></path><path d="M1297.77 -99.96L1297.77 -99.96" stroke="#132e65" stroke-width="1.5"></path><path d="M1297.77 -99.96L1438.98 -94.44" stroke="#132e65" stroke-width="1.5"></path><path d="M1297.77 -99.96L1272.86 110.79" stroke="#132e65" stroke-width="1.5"></path><path d="M1297.77 -99.96L1118.87 48.87" stroke="#132e65" stroke-width="1.5"></path><path d="M1272.86 110.79L1272.86 110.79" stroke="#132e65" stroke-width="1.5"></path><path d="M1272.86 110.79L1299.15 200.62" stroke="#132e65" stroke-width="1.5"></path><path d="M1272.86 110.79L1416.25 192.17" stroke="#132e65" stroke-width="1.5"></path><path d="M1272.86 110.79L1438.31 110.52" stroke="#132e65" stroke-width="1.5"></path><path d="M1299.15 200.62L1299.15 200.62" stroke="#132e65" stroke-width="1.5"></path><path d="M1299.15 200.62L1416.25 192.17" stroke="#132e65" stroke-width="1.5"></path><path d="M1295.92 489.76L1295.92 489.76" stroke="#132e65" stroke-width="1.5"></path><path d="M1295.92 489.76L1389.17 512.72" stroke="#132e65" stroke-width="1.5"></path><path d="M1295.92 489.76L1426.26 341.92" stroke="#132e65" stroke-width="1.5"></path><path d="M1295.92 489.76L1312.37 697.43" stroke="#132e65" stroke-width="1.5"></path><path d="M1295.92 489.76L1102.39 646.84" stroke="#132e65" stroke-width="1.5"></path><path d="M1312.37 697.43L1312.37 697.43" stroke="#132e65" stroke-width="1.5"></path><path d="M1312.37 697.43L1440.4 700.26" stroke="#132e65" stroke-width="1.5"></path><path d="M1312.37 697.43L1389.17 512.72" stroke="#132e65" stroke-width="1.5"></path><path d="M1312.37 697.43L1102.39 646.84" stroke="#132e65" stroke-width="1.5"></path><path d="M1312.37 697.43L1541.04 690.12" stroke="#132e65" stroke-width="1.5"></path><path d="M1438.98 -94.44L1438.98 -94.44" stroke="#132e65" stroke-width="1.5"></path><path d="M1438.98 -94.44L1592.91 -61.24" stroke="#132e65" stroke-width="1.5"></path><path d="M1438.98 -94.44L1438.31 110.52" stroke="#132e65" stroke-width="1.5"></path><path d="M1438.98 -94.44L1598.07 56.66" stroke="#132e65" stroke-width="1.5"></path><path d="M1438.98 -94.44L1272.86 110.79" stroke="#132e65" stroke-width="1.5"></path><path d="M1438.31 110.52L1438.31 110.52" stroke="#132e65" stroke-width="1.5"></path><path d="M1438.31 110.52L1416.25 192.17" stroke="#132e65" stroke-width="1.5"></path><path d="M1438.31 110.52L1550.9 215.5" stroke="#132e65" stroke-width="1.5"></path><path d="M1416.25 192.17L1416.25 192.17" stroke="#132e65" stroke-width="1.5"></path><path d="M1416.25 192.17L1550.9 215.5" stroke="#132e65" stroke-width="1.5"></path><path d="M1416.25 192.17L1426.26 341.92" stroke="#132e65" stroke-width="1.5"></path><path d="M1426.26 341.92L1426.26 341.92" stroke="#132e65" stroke-width="1.5"></path><path d="M1389.17 512.72L1389.17 512.72" stroke="#132e65" stroke-width="1.5"></path><path d="M1389.17 512.72L1426.26 341.92" stroke="#132e65" stroke-width="1.5"></path><path d="M1389.17 512.72L1440.4 700.26" stroke="#132e65" stroke-width="1.5"></path><path d="M1389.17 512.72L1600.28 506.55" stroke="#132e65" stroke-width="1.5"></path><path d="M1389.17 512.72L1541.04 690.12" stroke="#132e65" stroke-width="1.5"></path><path d="M1440.4 700.26L1440.4 700.26" stroke="#132e65" stroke-width="1.5"></path><path d="M1440.4 700.26L1541.04 690.12" stroke="#132e65" stroke-width="1.5"></path><path d="M1592.91 -61.24L1592.91 -61.24" stroke="#132e65" stroke-width="1.5"></path><path d="M1592.91 -61.24L1598.07 56.66" stroke="#132e65" stroke-width="1.5"></path><path d="M1592.91 -61.24L1438.31 110.52" stroke="#132e65" stroke-width="1.5"></path><path d="M1592.91 -61.24L1550.9 215.5" stroke="#132e65" stroke-width="1.5"></path><path d="M1598.07 56.66L1598.07 56.66" stroke="#132e65" stroke-width="1.5"></path><path d="M1598.07 56.66L1550.9 215.5" stroke="#132e65" stroke-width="1.5"></path><path d="M1598.07 56.66L1438.31 110.52" stroke="#132e65" stroke-width="1.5"></path><path d="M1550.9 215.5L1550.9 215.5" stroke="#132e65" stroke-width="1.5"></path><path d="M1550.9 215.5L1612.31 367.69" stroke="#132e65" stroke-width="1.5"></path><path d="M1612.31 367.69L1612.31 367.69" stroke="#132e65" stroke-width="1.5"></path><path d="M1612.31 367.69L1600.28 506.55" stroke="#132e65" stroke-width="1.5"></path><path d="M1612.31 367.69L1426.26 341.92" stroke="#132e65" stroke-width="1.5"></path><path d="M1612.31 367.69L1416.25 192.17" stroke="#132e65" stroke-width="1.5"></path><path d="M1612.31 367.69L1389.17 512.72" stroke="#132e65" stroke-width="1.5"></path><path d="M1600.28 506.55L1600.28 506.55" stroke="#132e65" stroke-width="1.5"></path><path d="M1600.28 506.55L1541.04 690.12" stroke="#132e65" stroke-width="1.5"></path><path d="M1600.28 506.55L1426.26 341.92" stroke="#132e65" stroke-width="1.5"></path><path d="M1600.28 506.55L1440.4 700.26" stroke="#132e65" stroke-width="1.5"></path><path d="M1600.28 506.55L1550.9 215.5" stroke="#132e65" stroke-width="1.5"></path><path d="M1541.04 690.12L1541.04 690.12" stroke="#132e65" stroke-width="1.5"></path><circle r="5" cx="-73.66" cy="405.26" fill="#132e65"></circle><circle r="5" cx="-100.19" cy="508.29" fill="#132e65"></circle><circle r="5" cx="-76.7" cy="675.3" fill="#132e65"></circle><circle r="5" cx="107.7" cy="353.6" fill="#132e65"></circle><circle r="5" cx="64.68" cy="557.89" fill="#132e65"></circle><circle r="5" cx="107.08" cy="655.53" fill="#132e65"></circle><circle r="5" cx="224.07" cy="396.27" fill="#132e65"></circle><circle r="5" cx="222.32" cy="660.12" fill="#132e65"></circle><circle r="5" cx="397.3" cy="390.46" fill="#132e65"></circle><circle r="5" cx="353.42" cy="649.45" fill="#132e65"></circle><circle r="5" cx="520.18" cy="371.64" fill="#132e65"></circle><circle r="5" cx="559.11" cy="560.77" fill="#132e65"></circle><circle r="5" cx="519.52" cy="651.85" fill="#132e65"></circle><circle r="5" cx="663" cy="223.83" fill="#132e65"></circle><circle r="5" cx="696.2" cy="372.26" fill="#132e65"></circle><circle r="5" cx="642.73" cy="555.99" fill="#132e65"></circle><circle r="5" cx="703.47" cy="708" fill="#132e65"></circle><circle r="5" cx="802.81" cy="241.78" fill="#132e65"></circle><circle r="5" cx="817.41" cy="386.82" fill="#132e65"></circle><circle r="5" cx="857.04" cy="520.24" fill="#132e65"></circle><circle r="5" cx="858.13" cy="670.07" fill="#132e65"></circle><circle r="5" cx="972.21" cy="-72.86" fill="#132e65"></circle><circle r="5" cx="952.42" cy="64.84" fill="#132e65"></circle><circle r="5" cx="977.97" cy="229.76" fill="#132e65"></circle><circle r="5" cx="999.56" cy="390.74" fill="#132e65"></circle><circle r="5" cx="997.25" cy="556.46" fill="#132e65"></circle><circle r="5" cx="998.89" cy="667.81" fill="#132e65"></circle><circle r="5" cx="1138.66" cy="-40.72" fill="#132e65"></circle><circle r="5" cx="1118.87" cy="48.87" fill="#132e65"></circle><circle r="5" cx="1160.68" cy="213.11" fill="#132e65"></circle><circle r="5" cx="1159.37" cy="357.23" fill="#132e65"></circle><circle r="5" cx="1102.39" cy="646.84" fill="#132e65"></circle><circle r="5" cx="1297.77" cy="-99.96" fill="#132e65"></circle><circle r="5" cx="1272.86" cy="110.79" fill="#132e65"></circle><circle r="5" cx="1299.15" cy="200.62" fill="#132e65"></circle><circle r="5" cx="1295.92" cy="489.76" fill="#132e65"></circle><circle r="5" cx="1312.37" cy="697.43" fill="#132e65"></circle><circle r="5" cx="1438.98" cy="-94.44" fill="#132e65"></circle><circle r="5" cx="1438.31" cy="110.52" fill="#132e65"></circle><circle r="5" cx="1416.25" cy="192.17" fill="#132e65"></circle><circle r="5" cx="1426.26" cy="341.92" fill="#132e65"></circle><circle r="5" cx="1389.17" cy="512.72" fill="#132e65"></circle><circle r="5" cx="1440.4" cy="700.26" fill="#132e65"></circle><circle r="5" cx="1592.91" cy="-61.24" fill="#132e65"></circle><circle r="5" cx="1598.07" cy="56.66" fill="#132e65"></circle><circle r="5" cx="1550.9" cy="215.5" fill="#132e65"></circle><circle r="5" cx="1612.31" cy="367.69" fill="#132e65"></circle><circle r="5" cx="1600.28" cy="506.55" fill="#132e65"></circle><circle r="5" cx="1541.04" cy="690.12" fill="#132e65"></circle><path d="M48.93 698.43L48.93 698.43" stroke="hsl(228.5, 77.2%, 51.5%)" stroke-width="1.5"></path><path d="M48.93 698.43L-108.94 670.17" stroke="hsl(228.5, 77.2%, 51.5%)" stroke-width="1.5"></path><path d="M48.93 698.43L-63.62 552.71" stroke="hsl(228.5, 77.2%, 51.5%)" stroke-width="1.5"></path><path d="M48.93 698.43L80.57 515.86" stroke="hsl(228.5, 77.2%, 51.5%)" stroke-width="1.5"></path><path d="M790.25 397.99L790.25 397.99" stroke="hsl(228.5, 77.2%, 51.5%)" stroke-width="1.5"></path><path d="M790.25 397.99L666.46 388.62" stroke="hsl(228.5, 77.2%, 51.5%)" stroke-width="1.5"></path><path d="M790.25 397.99L858.25 532.98" stroke="hsl(228.5, 77.2%, 51.5%)" stroke-width="1.5"></path><path d="M790.25 397.99L971.1 376.1" stroke="hsl(228.5, 77.2%, 51.5%)" stroke-width="1.5"></path><path d="M790.25 397.99L946.46 537.36" stroke="hsl(228.5, 77.2%, 51.5%)" stroke-width="1.5"></path><path d="M790.25 397.99L827.26 642.19" stroke="hsl(228.5, 77.2%, 51.5%)" stroke-width="1.5"></path><path d="M827.26 642.19L827.26 642.19" stroke="hsl(228.5, 77.2%, 51.5%)" stroke-width="1.5"></path><path d="M827.26 642.19L858.25 532.98" stroke="hsl(228.5, 77.2%, 51.5%)" stroke-width="1.5"></path><path d="M827.26 642.19L958.25 706.05" stroke="hsl(228.5, 77.2%, 51.5%)" stroke-width="1.5"></path><path d="M827.26 642.19L946.46 537.36" stroke="hsl(228.5, 77.2%, 51.5%)" stroke-width="1.5"></path><path d="M958.25 706.05L958.25 706.05" stroke="hsl(228.5, 77.2%, 51.5%)" stroke-width="1.5"></path><path d="M958.25 706.05L946.46 537.36" stroke="hsl(228.5, 77.2%, 51.5%)" stroke-width="1.5"></path><path d="M958.25 706.05L1142.49 676.59" stroke="hsl(228.5, 77.2%, 51.5%)" stroke-width="1.5"></path><path d="M958.25 706.05L858.25 532.98" stroke="hsl(228.5, 77.2%, 51.5%)" stroke-width="1.5"></path><path d="M1138.16 82.67L1138.16 82.67" stroke="hsl(228.5, 77.2%, 51.5%)" stroke-width="1.5"></path><path d="M1138.16 82.67L1120.99 233.06" stroke="hsl(228.5, 77.2%, 51.5%)" stroke-width="1.5"></path><path d="M1138.16 82.67L1252.58 188.76" stroke="hsl(228.5, 77.2%, 51.5%)" stroke-width="1.5"></path><path d="M1138.16 82.67L1310.42 92.63" stroke="hsl(228.5, 77.2%, 51.5%)" stroke-width="1.5"></path><path d="M1138.16 82.67L1254.89 -74.36" stroke="hsl(228.5, 77.2%, 51.5%)" stroke-width="1.5"></path><path d="M1138.16 82.67L1412.97 87.63" stroke="hsl(228.5, 77.2%, 51.5%)" stroke-width="1.5"></path><path d="M1138.16 82.67L1287.25 358.14" stroke="hsl(228.5, 77.2%, 51.5%)" stroke-width="1.5"></path><path d="M1254.89 -74.36L1254.89 -74.36" stroke="hsl(228.5, 77.2%, 51.5%)" stroke-width="1.5"></path><path d="M1254.89 -74.36L1310.42 92.63" stroke="hsl(228.5, 77.2%, 51.5%)" stroke-width="1.5"></path><path d="M1254.89 -74.36L1442.14 -60.04" stroke="hsl(228.5, 77.2%, 51.5%)" stroke-width="1.5"></path><path d="M1254.89 -74.36L1412.97 87.63" stroke="hsl(228.5, 77.2%, 51.5%)" stroke-width="1.5"></path><path d="M1254.89 -74.36L1252.58 188.76" stroke="hsl(228.5, 77.2%, 51.5%)" stroke-width="1.5"></path><path d="M1244.33 490.34L1244.33 490.34" stroke="hsl(228.5, 77.2%, 51.5%)" stroke-width="1.5"></path><path d="M1244.33 490.34L1136.52 539.51" stroke="hsl(228.5, 77.2%, 51.5%)" stroke-width="1.5"></path><path d="M1244.33 490.34L1287.25 358.14" stroke="hsl(228.5, 77.2%, 51.5%)" stroke-width="1.5"></path><path d="M1244.33 490.34L1123.36 407.25" stroke="hsl(228.5, 77.2%, 51.5%)" stroke-width="1.5"></path><path d="M1244.33 490.34L1281.53 654.01" stroke="hsl(228.5, 77.2%, 51.5%)" stroke-width="1.5"></path><path d="M1244.33 490.34L1418.96 512.2" stroke="hsl(228.5, 77.2%, 51.5%)" stroke-width="1.5"></path><path d="M1442.14 -60.04L1442.14 -60.04" stroke="hsl(228.5, 77.2%, 51.5%)" stroke-width="1.5"></path><path d="M1442.14 -60.04L1553.5 -71.05" stroke="hsl(228.5, 77.2%, 51.5%)" stroke-width="1.5"></path><path d="M1442.14 -60.04L1412.97 87.63" stroke="hsl(228.5, 77.2%, 51.5%)" stroke-width="1.5"></path><path d="M1442.14 -60.04L1310.42 92.63" stroke="hsl(228.5, 77.2%, 51.5%)" stroke-width="1.5"></path><path d="M1442.14 -60.04L1608.26 65.84" stroke="hsl(228.5, 77.2%, 51.5%)" stroke-width="1.5"></path><path d="M1452.13 224.96L1452.13 224.96" stroke="hsl(228.5, 77.2%, 51.5%)" stroke-width="1.5"></path><path d="M1452.13 224.96L1543.05 226.03" stroke="hsl(228.5, 77.2%, 51.5%)" stroke-width="1.5"></path><path d="M1452.13 224.96L1412.97 87.63" stroke="hsl(228.5, 77.2%, 51.5%)" stroke-width="1.5"></path><path d="M1452.13 224.96L1408.73 374.9" stroke="hsl(228.5, 77.2%, 51.5%)" stroke-width="1.5"></path><path d="M1452.13 224.96L1310.42 92.63" stroke="hsl(228.5, 77.2%, 51.5%)" stroke-width="1.5"></path><path d="M1452.13 224.96L1252.58 188.76" stroke="hsl(228.5, 77.2%, 51.5%)" stroke-width="1.5"></path><path d="M1452.13 224.96L1287.25 358.14" stroke="hsl(228.5, 77.2%, 51.5%)" stroke-width="1.5"></path><path d="M1408.73 374.9L1408.73 374.9" stroke="hsl(228.5, 77.2%, 51.5%)" stroke-width="1.5"></path><path d="M1408.73 374.9L1287.25 358.14" stroke="hsl(228.5, 77.2%, 51.5%)" stroke-width="1.5"></path><path d="M1408.73 374.9L1418.96 512.2" stroke="hsl(228.5, 77.2%, 51.5%)" stroke-width="1.5"></path><path d="M1553.5 -71.05L1553.5 -71.05" stroke="hsl(228.5, 77.2%, 51.5%)" stroke-width="1.5"></path><path d="M1553.5 -71.05L1608.26 65.84" stroke="hsl(228.5, 77.2%, 51.5%)" stroke-width="1.5"></path><path d="M1553.5 -71.05L1412.97 87.63" stroke="hsl(228.5, 77.2%, 51.5%)" stroke-width="1.5"></path><path d="M1553.5 -71.05L1310.42 92.63" stroke="hsl(228.5, 77.2%, 51.5%)" stroke-width="1.5"></path><path d="M1608.26 65.84L1608.26 65.84" stroke="hsl(228.5, 77.2%, 51.5%)" stroke-width="1.5"></path><path d="M1608.26 65.84L1543.05 226.03" stroke="hsl(228.5, 77.2%, 51.5%)" stroke-width="1.5"></path><path d="M1608.26 65.84L1412.97 87.63" stroke="hsl(228.5, 77.2%, 51.5%)" stroke-width="1.5"></path><path d="M-63.62 552.71L-63.62 552.71" stroke="hsl(228.5, 77.2%, 51.5%)" stroke-width="1.5"></path><path d="M-63.62 552.71L-108.94 670.17" stroke="hsl(228.5, 77.2%, 51.5%)" stroke-width="1.5"></path><path d="M-63.62 552.71L80.57 515.86" stroke="hsl(228.5, 77.2%, 51.5%)" stroke-width="1.5"></path><path d="M-63.62 552.71L217.88 560.4" stroke="hsl(228.5, 77.2%, 51.5%)" stroke-width="1.5"></path><path d="M-108.94 670.17L-108.94 670.17" stroke="hsl(228.5, 77.2%, 51.5%)" stroke-width="1.5"></path><path d="M-108.94 670.17L80.57 515.86" stroke="hsl(228.5, 77.2%, 51.5%)" stroke-width="1.5"></path><path d="M-108.94 670.17L217.88 560.4" stroke="hsl(228.5, 77.2%, 51.5%)" stroke-width="1.5"></path><path d="M-108.94 670.17L352.46 704.85" stroke="hsl(228.5, 77.2%, 51.5%)" stroke-width="1.5"></path><path d="M-108.94 670.17L411.81 554.36" stroke="hsl(228.5, 77.2%, 51.5%)" stroke-width="1.5"></path><path d="M80.57 515.86L80.57 515.86" stroke="hsl(228.5, 77.2%, 51.5%)" stroke-width="1.5"></path><path d="M80.57 515.86L217.88 560.4" stroke="hsl(228.5, 77.2%, 51.5%)" stroke-width="1.5"></path><path d="M217.88 560.4L217.88 560.4" stroke="hsl(228.5, 77.2%, 51.5%)" stroke-width="1.5"></path><path d="M217.88 560.4L411.81 554.36" stroke="hsl(228.5, 77.2%, 51.5%)" stroke-width="1.5"></path><path d="M217.88 560.4L352.46 704.85" stroke="hsl(228.5, 77.2%, 51.5%)" stroke-width="1.5"></path><path d="M217.88 560.4L48.93 698.43" stroke="hsl(228.5, 77.2%, 51.5%)" stroke-width="1.5"></path><path d="M217.88 560.4L489.25 511.76" stroke="hsl(228.5, 77.2%, 51.5%)" stroke-width="1.5"></path><path d="M411.81 554.36L411.81 554.36" stroke="hsl(228.5, 77.2%, 51.5%)" stroke-width="1.5"></path><path d="M411.81 554.36L489.25 511.76" stroke="hsl(228.5, 77.2%, 51.5%)" stroke-width="1.5"></path><path d="M411.81 554.36L352.46 704.85" stroke="hsl(228.5, 77.2%, 51.5%)" stroke-width="1.5"></path><path d="M411.81 554.36L638.41 712.19" stroke="hsl(228.5, 77.2%, 51.5%)" stroke-width="1.5"></path><path d="M411.81 554.36L666.46 388.62" stroke="hsl(228.5, 77.2%, 51.5%)" stroke-width="1.5"></path><path d="M352.46 704.85L352.46 704.85" stroke="hsl(228.5, 77.2%, 51.5%)" stroke-width="1.5"></path><path d="M352.46 704.85L489.25 511.76" stroke="hsl(228.5, 77.2%, 51.5%)" stroke-width="1.5"></path><path d="M352.46 704.85L638.41 712.19" stroke="hsl(228.5, 77.2%, 51.5%)" stroke-width="1.5"></path><path d="M489.25 511.76L489.25 511.76" stroke="hsl(228.5, 77.2%, 51.5%)" stroke-width="1.5"></path><path d="M489.25 511.76L666.46 388.62" stroke="hsl(228.5, 77.2%, 51.5%)" stroke-width="1.5"></path><path d="M666.46 388.62L666.46 388.62" stroke="hsl(228.5, 77.2%, 51.5%)" stroke-width="1.5"></path><path d="M666.46 388.62L858.25 532.98" stroke="hsl(228.5, 77.2%, 51.5%)" stroke-width="1.5"></path><path d="M666.46 388.62L827.26 642.19" stroke="hsl(228.5, 77.2%, 51.5%)" stroke-width="1.5"></path><path d="M638.41 712.19L638.41 712.19" stroke="hsl(228.5, 77.2%, 51.5%)" stroke-width="1.5"></path><path d="M638.41 712.19L827.26 642.19" stroke="hsl(228.5, 77.2%, 51.5%)" stroke-width="1.5"></path><path d="M638.41 712.19L489.25 511.76" stroke="hsl(228.5, 77.2%, 51.5%)" stroke-width="1.5"></path><path d="M638.41 712.19L858.25 532.98" stroke="hsl(228.5, 77.2%, 51.5%)" stroke-width="1.5"></path><path d="M638.41 712.19L958.25 706.05" stroke="hsl(228.5, 77.2%, 51.5%)" stroke-width="1.5"></path><path d="M858.25 532.98L858.25 532.98" stroke="hsl(228.5, 77.2%, 51.5%)" stroke-width="1.5"></path><path d="M858.25 532.98L946.46 537.36" stroke="hsl(228.5, 77.2%, 51.5%)" stroke-width="1.5"></path><path d="M858.25 532.98L971.1 376.1" stroke="hsl(228.5, 77.2%, 51.5%)" stroke-width="1.5"></path><path d="M971.1 376.1L971.1 376.1" stroke="hsl(228.5, 77.2%, 51.5%)" stroke-width="1.5"></path><path d="M971.1 376.1L1123.36 407.25" stroke="hsl(228.5, 77.2%, 51.5%)" stroke-width="1.5"></path><path d="M971.1 376.1L946.46 537.36" stroke="hsl(228.5, 77.2%, 51.5%)" stroke-width="1.5"></path><path d="M946.46 537.36L946.46 537.36" stroke="hsl(228.5, 77.2%, 51.5%)" stroke-width="1.5"></path><path d="M946.46 537.36L1136.52 539.51" stroke="hsl(228.5, 77.2%, 51.5%)" stroke-width="1.5"></path><path d="M1120.99 233.06L1120.99 233.06" stroke="hsl(228.5, 77.2%, 51.5%)" stroke-width="1.5"></path><path d="M1120.99 233.06L1252.58 188.76" stroke="hsl(228.5, 77.2%, 51.5%)" stroke-width="1.5"></path><path d="M1123.36 407.25L1123.36 407.25" stroke="hsl(228.5, 77.2%, 51.5%)" stroke-width="1.5"></path><path d="M1123.36 407.25L1136.52 539.51" stroke="hsl(228.5, 77.2%, 51.5%)" stroke-width="1.5"></path><path d="M1136.52 539.51L1136.52 539.51" stroke="hsl(228.5, 77.2%, 51.5%)" stroke-width="1.5"></path><path d="M1136.52 539.51L1142.49 676.59" stroke="hsl(228.5, 77.2%, 51.5%)" stroke-width="1.5"></path><path d="M1136.52 539.51L1281.53 654.01" stroke="hsl(228.5, 77.2%, 51.5%)" stroke-width="1.5"></path><path d="M1142.49 676.59L1142.49 676.59" stroke="hsl(228.5, 77.2%, 51.5%)" stroke-width="1.5"></path><path d="M1142.49 676.59L1281.53 654.01" stroke="hsl(228.5, 77.2%, 51.5%)" stroke-width="1.5"></path><path d="M1310.42 92.63L1310.42 92.63" stroke="hsl(228.5, 77.2%, 51.5%)" stroke-width="1.5"></path><path d="M1310.42 92.63L1412.97 87.63" stroke="hsl(228.5, 77.2%, 51.5%)" stroke-width="1.5"></path><path d="M1310.42 92.63L1252.58 188.76" stroke="hsl(228.5, 77.2%, 51.5%)" stroke-width="1.5"></path><path d="M1252.58 188.76L1252.58 188.76" stroke="hsl(228.5, 77.2%, 51.5%)" stroke-width="1.5"></path><path d="M1252.58 188.76L1287.25 358.14" stroke="hsl(228.5, 77.2%, 51.5%)" stroke-width="1.5"></path><path d="M1252.58 188.76L1412.97 87.63" stroke="hsl(228.5, 77.2%, 51.5%)" stroke-width="1.5"></path><path d="M1287.25 358.14L1287.25 358.14" stroke="hsl(228.5, 77.2%, 51.5%)" stroke-width="1.5"></path><path d="M1281.53 654.01L1281.53 654.01" stroke="hsl(228.5, 77.2%, 51.5%)" stroke-width="1.5"></path><path d="M1281.53 654.01L1442.4 638.18" stroke="hsl(228.5, 77.2%, 51.5%)" stroke-width="1.5"></path><path d="M1412.97 87.63L1412.97 87.63" stroke="hsl(228.5, 77.2%, 51.5%)" stroke-width="1.5"></path><path d="M1412.97 87.63L1543.05 226.03" stroke="hsl(228.5, 77.2%, 51.5%)" stroke-width="1.5"></path><path d="M1418.96 512.2L1418.96 512.2" stroke="hsl(228.5, 77.2%, 51.5%)" stroke-width="1.5"></path><path d="M1418.96 512.2L1442.4 638.18" stroke="hsl(228.5, 77.2%, 51.5%)" stroke-width="1.5"></path><path d="M1418.96 512.2L1546.28 560.93" stroke="hsl(228.5, 77.2%, 51.5%)" stroke-width="1.5"></path><path d="M1418.96 512.2L1577.38 409.69" stroke="hsl(228.5, 77.2%, 51.5%)" stroke-width="1.5"></path><path d="M1418.96 512.2L1281.53 654.01" stroke="hsl(228.5, 77.2%, 51.5%)" stroke-width="1.5"></path><path d="M1442.4 638.18L1442.4 638.18" stroke="hsl(228.5, 77.2%, 51.5%)" stroke-width="1.5"></path><path d="M1442.4 638.18L1546.28 560.93" stroke="hsl(228.5, 77.2%, 51.5%)" stroke-width="1.5"></path><path d="M1543.05 226.03L1543.05 226.03" stroke="hsl(228.5, 77.2%, 51.5%)" stroke-width="1.5"></path><path d="M1543.05 226.03L1577.38 409.69" stroke="hsl(228.5, 77.2%, 51.5%)" stroke-width="1.5"></path><path d="M1577.38 409.69L1577.38 409.69" stroke="hsl(228.5, 77.2%, 51.5%)" stroke-width="1.5"></path><path d="M1577.38 409.69L1546.28 560.93" stroke="hsl(228.5, 77.2%, 51.5%)" stroke-width="1.5"></path><path d="M1577.38 409.69L1408.73 374.9" stroke="hsl(228.5, 77.2%, 51.5%)" stroke-width="1.5"></path><path d="M1577.38 409.69L1452.13 224.96" stroke="hsl(228.5, 77.2%, 51.5%)" stroke-width="1.5"></path><path d="M1546.28 560.93L1546.28 560.93" stroke="hsl(228.5, 77.2%, 51.5%)" stroke-width="1.5"></path><path d="M1546.28 560.93L1602.83 683.45" stroke="hsl(228.5, 77.2%, 51.5%)" stroke-width="1.5"></path><path d="M1602.83 683.45L1602.83 683.45" stroke="hsl(228.5, 77.2%, 51.5%)" stroke-width="1.5"></path><path d="M1602.83 683.45L1442.4 638.18" stroke="hsl(228.5, 77.2%, 51.5%)" stroke-width="1.5"></path><path d="M1602.83 683.45L1418.96 512.2" stroke="hsl(228.5, 77.2%, 51.5%)" stroke-width="1.5"></path><circle r="25" cx="48.93" cy="698.43" fill="url(#SvgjsRadialGradient1001)"></circle><circle r="25" cx="790.25" cy="397.99" fill="url(#SvgjsRadialGradient1001)"></circle><circle r="25" cx="827.26" cy="642.19" fill="url(#SvgjsRadialGradient1001)"></circle><circle r="25" cx="958.25" cy="706.05" fill="url(#SvgjsRadialGradient1001)"></circle><circle r="25" cx="1138.16" cy="82.67" fill="url(#SvgjsRadialGradient1001)"></circle><circle r="25" cx="1254.89" cy="-74.36" fill="url(#SvgjsRadialGradient1001)"></circle><circle r="25" cx="1244.33" cy="490.34" fill="url(#SvgjsRadialGradient1001)"></circle><circle r="25" cx="1442.14" cy="-60.04" fill="url(#SvgjsRadialGradient1001)"></circle><circle r="25" cx="1452.13" cy="224.96" fill="url(#SvgjsRadialGradient1001)"></circle><circle r="25" cx="1408.73" cy="374.9" fill="url(#SvgjsRadialGradient1001)"></circle><circle r="25" cx="1553.5" cy="-71.05" fill="url(#SvgjsRadialGradient1001)"></circle><circle r="25" cx="1608.26" cy="65.84" fill="url(#SvgjsRadialGradient1001)"></circle><circle r="5" cx="-63.62" cy="552.71" fill="#8b9ad9"></circle><circle r="5" cx="-108.94" cy="670.17" fill="#8b9ad9"></circle><circle r="5" cx="80.57" cy="515.86" fill="#8b9ad9"></circle><circle r="5" cx="217.88" cy="560.4" fill="#8b9ad9"></circle><circle r="5" cx="411.81" cy="554.36" fill="#8b9ad9"></circle><circle r="5" cx="352.46" cy="704.85" fill="#8b9ad9"></circle><circle r="5" cx="489.25" cy="511.76" fill="#8b9ad9"></circle><circle r="5" cx="666.46" cy="388.62" fill="#8b9ad9"></circle><circle r="5" cx="638.41" cy="712.19" fill="#8b9ad9"></circle><circle r="5" cx="858.25" cy="532.98" fill="#8b9ad9"></circle><circle r="5" cx="971.1" cy="376.1" fill="#8b9ad9"></circle><circle r="5" cx="946.46" cy="537.36" fill="#8b9ad9"></circle><circle r="5" cx="1120.99" cy="233.06" fill="#8b9ad9"></circle><circle r="5" cx="1123.36" cy="407.25" fill="#8b9ad9"></circle><circle r="5" cx="1136.52" cy="539.51" fill="#8b9ad9"></circle><circle r="5" cx="1142.49" cy="676.59" fill="#8b9ad9"></circle><circle r="5" cx="1310.42" cy="92.63" fill="#8b9ad9"></circle><circle r="5" cx="1252.58" cy="188.76" fill="#8b9ad9"></circle><circle r="5" cx="1287.25" cy="358.14" fill="#8b9ad9"></circle><circle r="5" cx="1281.53" cy="654.01" fill="#8b9ad9"></circle><circle r="5" cx="1412.97" cy="87.63" fill="#8b9ad9"></circle><circle r="5" cx="1418.96" cy="512.2" fill="#8b9ad9"></circle><circle r="5" cx="1442.4" cy="638.18" fill="#8b9ad9"></circle><circle r="5" cx="1543.05" cy="226.03" fill="#8b9ad9"></circle><circle r="5" cx="1577.38" cy="409.69" fill="#8b9ad9"></circle><circle r="5" cx="1546.28" cy="560.93" fill="#8b9ad9"></circle><circle r="5" cx="1602.83" cy="683.45" fill="#8b9ad9"></circle></g><defs><mask id="SvgjsMask1000"><rect width="1440" height="560" fill="#ffffff"></rect></mask><radialGradient id="SvgjsRadialGradient1001"><stop stop-color="#ffffff" offset="0.1"></stop><stop stop-color="#1735b3" offset="0.2"></stop><stop stop-color="rgba(23, 53, 179, 0)" offset="1"></stop></radialGradient></defs></svg>