<svg xmlns="http://www.w3.org/2000/svg" version="1.1" xmlns:xlink="http://www.w3.org/1999/xlink" xmlns:svgjs="http://svgjs.com/svgjs" width="480" height="100%" preserveAspectRatio="none" viewBox="0 0 480 560"><g mask="url(&quot;#SvgjsMask1042&quot;)" fill="none"><rect width="480" height="560" x="0" y="0" fill="#0e2a47"></rect><path d="M-23.93 375.64L-23.93 375.64" stroke="#132e65" stroke-width="1.5"></path><path d="M-23.93 375.64L40.37 401.73" stroke="#132e65" stroke-width="1.5"></path><path d="M-23.93 375.64L-25.48 449.97" stroke="#132e65" stroke-width="1.5"></path><path d="M-23.93 375.64L19.07 468.68" stroke="#132e65" stroke-width="1.5"></path><path d="M-25.48 449.97L-25.48 449.97" stroke="#132e65" stroke-width="1.5"></path><path d="M-25.48 449.97L19.07 468.68" stroke="#132e65" stroke-width="1.5"></path><path d="M-25.48 449.97L-30.07 517.39" stroke="#132e65" stroke-width="1.5"></path><path d="M-25.48 449.97L40.37 401.73" stroke="#132e65" stroke-width="1.5"></path><path d="M-25.48 449.97L17.78 534.46" stroke="#132e65" stroke-width="1.5"></path><path d="M-25.48 449.97L104.51 464.26" stroke="#132e65" stroke-width="1.5"></path><path d="M-30.07 517.39L-30.07 517.39" stroke="#132e65" stroke-width="1.5"></path><path d="M-30.07 517.39L17.78 534.46" stroke="#132e65" stroke-width="1.5"></path><path d="M-30.07 517.39L19.07 468.68" stroke="#132e65" stroke-width="1.5"></path><path d="M-30.07 517.39L-30.22 605.55" stroke="#132e65" stroke-width="1.5"></path><path d="M-30.07 517.39L40.37 401.73" stroke="#132e65" stroke-width="1.5"></path><path d="M-30.07 517.39L108.86 530.24" stroke="#132e65" stroke-width="1.5"></path><path d="M-30.22 605.55L-30.22 605.55" stroke="#132e65" stroke-width="1.5"></path><path d="M-30.22 605.55L17.78 534.46" stroke="#132e65" stroke-width="1.5"></path><path d="M40.37 401.73L40.37 401.73" stroke="#132e65" stroke-width="1.5"></path><path d="M40.37 401.73L101.39 398.79" stroke="#132e65" stroke-width="1.5"></path><path d="M40.37 401.73L19.07 468.68" stroke="#132e65" stroke-width="1.5"></path><path d="M40.37 401.73L104.51 464.26" stroke="#132e65" stroke-width="1.5"></path><path d="M40.37 401.73L171.51 391.25" stroke="#132e65" stroke-width="1.5"></path><path d="M19.07 468.68L19.07 468.68" stroke="#132e65" stroke-width="1.5"></path><path d="M19.07 468.68L17.78 534.46" stroke="#132e65" stroke-width="1.5"></path><path d="M19.07 468.68L104.51 464.26" stroke="#132e65" stroke-width="1.5"></path><path d="M17.78 534.46L17.78 534.46" stroke="#132e65" stroke-width="1.5"></path><path d="M17.78 534.46L108.86 530.24" stroke="#132e65" stroke-width="1.5"></path><path d="M101.39 398.79L101.39 398.79" stroke="#132e65" stroke-width="1.5"></path><path d="M101.39 398.79L104.51 464.26" stroke="#132e65" stroke-width="1.5"></path><path d="M101.39 398.79L171.51 391.25" stroke="#132e65" stroke-width="1.5"></path><path d="M104.51 464.26L104.51 464.26" stroke="#132e65" stroke-width="1.5"></path><path d="M104.51 464.26L108.86 530.24" stroke="#132e65" stroke-width="1.5"></path><path d="M108.86 530.24L108.86 530.24" stroke="#132e65" stroke-width="1.5"></path><path d="M108.86 530.24L115.97 583.66" stroke="#132e65" stroke-width="1.5"></path><path d="M108.86 530.24L179.82 539.79" stroke="#132e65" stroke-width="1.5"></path><path d="M108.86 530.24L176.55 604.24" stroke="#132e65" stroke-width="1.5"></path><path d="M115.97 583.66L115.97 583.66" stroke="#132e65" stroke-width="1.5"></path><path d="M115.97 583.66L176.55 604.24" stroke="#132e65" stroke-width="1.5"></path><path d="M173.37 314.92L173.37 314.92" stroke="#132e65" stroke-width="1.5"></path><path d="M173.37 314.92L239.42 315.16" stroke="#132e65" stroke-width="1.5"></path><path d="M173.37 314.92L171.51 391.25" stroke="#132e65" stroke-width="1.5"></path><path d="M173.37 314.92L248.44 372.58" stroke="#132e65" stroke-width="1.5"></path><path d="M173.37 314.92L228.83 232.45" stroke="#132e65" stroke-width="1.5"></path><path d="M173.37 314.92L101.39 398.79" stroke="#132e65" stroke-width="1.5"></path><path d="M173.37 314.92L304.81 304.04" stroke="#132e65" stroke-width="1.5"></path><path d="M171.51 391.25L171.51 391.25" stroke="#132e65" stroke-width="1.5"></path><path d="M171.51 391.25L192.41 453.63" stroke="#132e65" stroke-width="1.5"></path><path d="M171.51 391.25L248.44 372.58" stroke="#132e65" stroke-width="1.5"></path><path d="M192.41 453.63L192.41 453.63" stroke="#132e65" stroke-width="1.5"></path><path d="M192.41 453.63L257.45 453.29" stroke="#132e65" stroke-width="1.5"></path><path d="M192.41 453.63L179.82 539.79" stroke="#132e65" stroke-width="1.5"></path><path d="M192.41 453.63L104.51 464.26" stroke="#132e65" stroke-width="1.5"></path><path d="M192.41 453.63L241.42 529.01" stroke="#132e65" stroke-width="1.5"></path><path d="M179.82 539.79L179.82 539.79" stroke="#132e65" stroke-width="1.5"></path><path d="M179.82 539.79L241.42 529.01" stroke="#132e65" stroke-width="1.5"></path><path d="M179.82 539.79L176.55 604.24" stroke="#132e65" stroke-width="1.5"></path><path d="M179.82 539.79L115.97 583.66" stroke="#132e65" stroke-width="1.5"></path><path d="M179.82 539.79L228.79 610.9" stroke="#132e65" stroke-width="1.5"></path><path d="M176.55 604.24L176.55 604.24" stroke="#132e65" stroke-width="1.5"></path><path d="M176.55 604.24L228.79 610.9" stroke="#132e65" stroke-width="1.5"></path><path d="M176.55 604.24L241.42 529.01" stroke="#132e65" stroke-width="1.5"></path><path d="M176.55 604.24L192.41 453.63" stroke="#132e65" stroke-width="1.5"></path><path d="M259.42 176.03L259.42 176.03" stroke="#132e65" stroke-width="1.5"></path><path d="M259.42 176.03L299.79 175.02" stroke="#132e65" stroke-width="1.5"></path><path d="M228.83 232.45L228.83 232.45" stroke="#132e65" stroke-width="1.5"></path><path d="M228.83 232.45L259.42 176.03" stroke="#132e65" stroke-width="1.5"></path><path d="M228.83 232.45L239.42 315.16" stroke="#132e65" stroke-width="1.5"></path><path d="M228.83 232.45L299.79 175.02" stroke="#132e65" stroke-width="1.5"></path><path d="M228.83 232.45L329.9 250.49" stroke="#132e65" stroke-width="1.5"></path><path d="M228.83 232.45L304.81 304.04" stroke="#132e65" stroke-width="1.5"></path><path d="M239.42 315.16L239.42 315.16" stroke="#132e65" stroke-width="1.5"></path><path d="M239.42 315.16L248.44 372.58" stroke="#132e65" stroke-width="1.5"></path><path d="M248.44 372.58L248.44 372.58" stroke="#132e65" stroke-width="1.5"></path><path d="M248.44 372.58L322.62 380.24" stroke="#132e65" stroke-width="1.5"></path><path d="M248.44 372.58L257.45 453.29" stroke="#132e65" stroke-width="1.5"></path><path d="M248.44 372.58L304.81 304.04" stroke="#132e65" stroke-width="1.5"></path><path d="M257.45 453.29L257.45 453.29" stroke="#132e65" stroke-width="1.5"></path><path d="M257.45 453.29L321.91 458.23" stroke="#132e65" stroke-width="1.5"></path><path d="M257.45 453.29L241.42 529.01" stroke="#132e65" stroke-width="1.5"></path><path d="M241.42 529.01L241.42 529.01" stroke="#132e65" stroke-width="1.5"></path><path d="M241.42 529.01L308.15 528.16" stroke="#132e65" stroke-width="1.5"></path><path d="M228.79 610.9L228.79 610.9" stroke="#132e65" stroke-width="1.5"></path><path d="M307.17 -37L307.17 -37" stroke="#132e65" stroke-width="1.5"></path><path d="M307.17 -37L309.21 17.96" stroke="#132e65" stroke-width="1.5"></path><path d="M307.17 -37L393.75 -40.47" stroke="#132e65" stroke-width="1.5"></path><path d="M307.17 -37L384.04 18.56" stroke="#132e65" stroke-width="1.5"></path><path d="M307.17 -37L310.81 118.45" stroke="#132e65" stroke-width="1.5"></path><path d="M309.21 17.96L309.21 17.96" stroke="#132e65" stroke-width="1.5"></path><path d="M310.81 118.45L310.81 118.45" stroke="#132e65" stroke-width="1.5"></path><path d="M310.81 118.45L299.79 175.02" stroke="#132e65" stroke-width="1.5"></path><path d="M310.81 118.45L259.42 176.03" stroke="#132e65" stroke-width="1.5"></path><path d="M299.79 175.02L299.79 175.02" stroke="#132e65" stroke-width="1.5"></path><path d="M299.79 175.02L329.9 250.49" stroke="#132e65" stroke-width="1.5"></path><path d="M329.9 250.49L329.9 250.49" stroke="#132e65" stroke-width="1.5"></path><path d="M329.9 250.49L304.81 304.04" stroke="#132e65" stroke-width="1.5"></path><path d="M329.9 250.49L394.33 227.98" stroke="#132e65" stroke-width="1.5"></path><path d="M304.81 304.04L304.81 304.04" stroke="#132e65" stroke-width="1.5"></path><path d="M304.81 304.04L239.42 315.16" stroke="#132e65" stroke-width="1.5"></path><path d="M304.81 304.04L322.62 380.24" stroke="#132e65" stroke-width="1.5"></path><path d="M304.81 304.04L388.97 320.65" stroke="#132e65" stroke-width="1.5"></path><path d="M322.62 380.24L322.62 380.24" stroke="#132e65" stroke-width="1.5"></path><path d="M322.62 380.24L390.16 377.37" stroke="#132e65" stroke-width="1.5"></path><path d="M322.62 380.24L321.91 458.23" stroke="#132e65" stroke-width="1.5"></path><path d="M321.91 458.23L321.91 458.23" stroke="#132e65" stroke-width="1.5"></path><path d="M321.91 458.23L308.15 528.16" stroke="#132e65" stroke-width="1.5"></path><path d="M321.91 458.23L400.59 457.36" stroke="#132e65" stroke-width="1.5"></path><path d="M321.91 458.23L390.16 377.37" stroke="#132e65" stroke-width="1.5"></path><path d="M321.91 458.23L241.42 529.01" stroke="#132e65" stroke-width="1.5"></path><path d="M308.15 528.16L308.15 528.16" stroke="#132e65" stroke-width="1.5"></path><path d="M308.15 528.16L329.59 579.7" stroke="#132e65" stroke-width="1.5"></path><path d="M308.15 528.16L257.45 453.29" stroke="#132e65" stroke-width="1.5"></path><path d="M308.15 528.16L398.84 586.14" stroke="#132e65" stroke-width="1.5"></path><path d="M308.15 528.16L228.79 610.9" stroke="#132e65" stroke-width="1.5"></path><path d="M329.59 579.7L329.59 579.7" stroke="#132e65" stroke-width="1.5"></path><path d="M329.59 579.7L398.84 586.14" stroke="#132e65" stroke-width="1.5"></path><path d="M329.59 579.7L241.42 529.01" stroke="#132e65" stroke-width="1.5"></path><path d="M393.75 -40.47L393.75 -40.47" stroke="#132e65" stroke-width="1.5"></path><path d="M393.75 -40.47L384.04 18.56" stroke="#132e65" stroke-width="1.5"></path><path d="M393.75 -40.47L462.52 -27.56" stroke="#132e65" stroke-width="1.5"></path><path d="M393.75 -40.47L455.97 27.03" stroke="#132e65" stroke-width="1.5"></path><path d="M393.75 -40.47L309.21 17.96" stroke="#132e65" stroke-width="1.5"></path><path d="M384.04 18.56L384.04 18.56" stroke="#132e65" stroke-width="1.5"></path><path d="M384.04 18.56L455.97 27.03" stroke="#132e65" stroke-width="1.5"></path><path d="M384.04 18.56L309.21 17.96" stroke="#132e65" stroke-width="1.5"></path><path d="M384.04 18.56L462.52 -27.56" stroke="#132e65" stroke-width="1.5"></path><path d="M400.86 184.2L400.86 184.2" stroke="#132e65" stroke-width="1.5"></path><path d="M400.86 184.2L394.33 227.98" stroke="#132e65" stroke-width="1.5"></path><path d="M400.86 184.2L450.22 184.82" stroke="#132e65" stroke-width="1.5"></path><path d="M400.86 184.2L463.45 119.14" stroke="#132e65" stroke-width="1.5"></path><path d="M394.33 227.98L394.33 227.98" stroke="#132e65" stroke-width="1.5"></path><path d="M394.33 227.98L450.22 184.82" stroke="#132e65" stroke-width="1.5"></path><path d="M388.97 320.65L388.97 320.65" stroke="#132e65" stroke-width="1.5"></path><path d="M388.97 320.65L390.16 377.37" stroke="#132e65" stroke-width="1.5"></path><path d="M388.97 320.65L450.07 307.51" stroke="#132e65" stroke-width="1.5"></path><path d="M390.16 377.37L390.16 377.37" stroke="#132e65" stroke-width="1.5"></path><path d="M390.16 377.37L448.12 380.65" stroke="#132e65" stroke-width="1.5"></path><path d="M390.16 377.37L400.59 457.36" stroke="#132e65" stroke-width="1.5"></path><path d="M400.59 457.36L400.59 457.36" stroke="#132e65" stroke-width="1.5"></path><path d="M400.59 457.36L448.12 380.65" stroke="#132e65" stroke-width="1.5"></path><path d="M400.59 457.36L466.22 542.2" stroke="#132e65" stroke-width="1.5"></path><path d="M400.59 457.36L322.62 380.24" stroke="#132e65" stroke-width="1.5"></path><path d="M398.84 586.14L398.84 586.14" stroke="#132e65" stroke-width="1.5"></path><path d="M398.84 586.14L465.91 582.36" stroke="#132e65" stroke-width="1.5"></path><path d="M398.84 586.14L466.22 542.2" stroke="#132e65" stroke-width="1.5"></path><path d="M462.52 -27.56L462.52 -27.56" stroke="#132e65" stroke-width="1.5"></path><path d="M462.52 -27.56L455.97 27.03" stroke="#132e65" stroke-width="1.5"></path><path d="M462.52 -27.56L533.73 -52.17" stroke="#132e65" stroke-width="1.5"></path><path d="M462.52 -27.56L522.75 25.35" stroke="#132e65" stroke-width="1.5"></path><path d="M462.52 -27.56L520.18 99.03" stroke="#132e65" stroke-width="1.5"></path><path d="M455.97 27.03L455.97 27.03" stroke="#132e65" stroke-width="1.5"></path><path d="M455.97 27.03L522.75 25.35" stroke="#132e65" stroke-width="1.5"></path><path d="M455.97 27.03L463.45 119.14" stroke="#132e65" stroke-width="1.5"></path><path d="M463.45 119.14L463.45 119.14" stroke="#132e65" stroke-width="1.5"></path><path d="M463.45 119.14L520.18 99.03" stroke="#132e65" stroke-width="1.5"></path><path d="M463.45 119.14L450.22 184.82" stroke="#132e65" stroke-width="1.5"></path><path d="M463.45 119.14L510.86 182.53" stroke="#132e65" stroke-width="1.5"></path><path d="M463.45 119.14L522.75 25.35" stroke="#132e65" stroke-width="1.5"></path><path d="M450.22 184.82L450.22 184.82" stroke="#132e65" stroke-width="1.5"></path><path d="M450.22 184.82L510.86 182.53" stroke="#132e65" stroke-width="1.5"></path><path d="M450.07 307.51L450.07 307.51" stroke="#132e65" stroke-width="1.5"></path><path d="M450.07 307.51L448.12 380.65" stroke="#132e65" stroke-width="1.5"></path><path d="M450.07 307.51L526.89 330.55" stroke="#132e65" stroke-width="1.5"></path><path d="M450.07 307.51L514.89 253.09" stroke="#132e65" stroke-width="1.5"></path><path d="M448.12 380.65L448.12 380.65" stroke="#132e65" stroke-width="1.5"></path><path d="M448.12 380.65L518.65 388.8" stroke="#132e65" stroke-width="1.5"></path><path d="M466.22 542.2L466.22 542.2" stroke="#132e65" stroke-width="1.5"></path><path d="M466.22 542.2L465.91 582.36" stroke="#132e65" stroke-width="1.5"></path><path d="M466.22 542.2L508.91 529.99" stroke="#132e65" stroke-width="1.5"></path><path d="M465.91 582.36L465.91 582.36" stroke="#132e65" stroke-width="1.5"></path><path d="M465.91 582.36L508.91 529.99" stroke="#132e65" stroke-width="1.5"></path><path d="M465.91 582.36L542.13 587.42" stroke="#132e65" stroke-width="1.5"></path><path d="M465.91 582.36L329.59 579.7" stroke="#132e65" stroke-width="1.5"></path><path d="M465.91 582.36L400.59 457.36" stroke="#132e65" stroke-width="1.5"></path><path d="M533.73 -52.17L533.73 -52.17" stroke="#132e65" stroke-width="1.5"></path><path d="M533.73 -52.17L522.75 25.35" stroke="#132e65" stroke-width="1.5"></path><path d="M533.73 -52.17L455.97 27.03" stroke="#132e65" stroke-width="1.5"></path><path d="M533.73 -52.17L393.75 -40.47" stroke="#132e65" stroke-width="1.5"></path><path d="M522.75 25.35L522.75 25.35" stroke="#132e65" stroke-width="1.5"></path><path d="M522.75 25.35L520.18 99.03" stroke="#132e65" stroke-width="1.5"></path><path d="M520.18 99.03L520.18 99.03" stroke="#132e65" stroke-width="1.5"></path><path d="M520.18 99.03L510.86 182.53" stroke="#132e65" stroke-width="1.5"></path><path d="M520.18 99.03L455.97 27.03" stroke="#132e65" stroke-width="1.5"></path><path d="M520.18 99.03L450.22 184.82" stroke="#132e65" stroke-width="1.5"></path><path d="M510.86 182.53L510.86 182.53" stroke="#132e65" stroke-width="1.5"></path><path d="M510.86 182.53L514.89 253.09" stroke="#132e65" stroke-width="1.5"></path><path d="M510.86 182.53L400.86 184.2" stroke="#132e65" stroke-width="1.5"></path><path d="M514.89 253.09L514.89 253.09" stroke="#132e65" stroke-width="1.5"></path><path d="M514.89 253.09L526.89 330.55" stroke="#132e65" stroke-width="1.5"></path><path d="M514.89 253.09L450.22 184.82" stroke="#132e65" stroke-width="1.5"></path><path d="M514.89 253.09L394.33 227.98" stroke="#132e65" stroke-width="1.5"></path><path d="M514.89 253.09L400.86 184.2" stroke="#132e65" stroke-width="1.5"></path><path d="M526.89 330.55L526.89 330.55" stroke="#132e65" stroke-width="1.5"></path><path d="M526.89 330.55L518.65 388.8" stroke="#132e65" stroke-width="1.5"></path><path d="M526.89 330.55L448.12 380.65" stroke="#132e65" stroke-width="1.5"></path><path d="M526.89 330.55L388.97 320.65" stroke="#132e65" stroke-width="1.5"></path><path d="M526.89 330.55L390.16 377.37" stroke="#132e65" stroke-width="1.5"></path><path d="M518.65 388.8L518.65 388.8" stroke="#132e65" stroke-width="1.5"></path><path d="M518.65 388.8L450.07 307.51" stroke="#132e65" stroke-width="1.5"></path><path d="M518.65 388.8L390.16 377.37" stroke="#132e65" stroke-width="1.5"></path><path d="M518.65 388.8L514.89 253.09" stroke="#132e65" stroke-width="1.5"></path><path d="M508.91 529.99L508.91 529.99" stroke="#132e65" stroke-width="1.5"></path><path d="M508.91 529.99L542.13 587.42" stroke="#132e65" stroke-width="1.5"></path><path d="M508.91 529.99L398.84 586.14" stroke="#132e65" stroke-width="1.5"></path><path d="M508.91 529.99L400.59 457.36" stroke="#132e65" stroke-width="1.5"></path><path d="M542.13 587.42L542.13 587.42" stroke="#132e65" stroke-width="1.5"></path><path d="M542.13 587.42L466.22 542.2" stroke="#132e65" stroke-width="1.5"></path><path d="M542.13 587.42L398.84 586.14" stroke="#132e65" stroke-width="1.5"></path><path d="M542.13 587.42L400.59 457.36" stroke="#132e65" stroke-width="1.5"></path><circle r="5" cx="-23.93" cy="375.64" fill="#132e65"></circle><circle r="5" cx="-25.48" cy="449.97" fill="#132e65"></circle><circle r="5" cx="-30.07" cy="517.39" fill="#132e65"></circle><circle r="5" cx="-30.22" cy="605.55" fill="#132e65"></circle><circle r="5" cx="40.37" cy="401.73" fill="#132e65"></circle><circle r="5" cx="19.07" cy="468.68" fill="#132e65"></circle><circle r="5" cx="17.78" cy="534.46" fill="#132e65"></circle><circle r="5" cx="101.39" cy="398.79" fill="#132e65"></circle><circle r="5" cx="104.51" cy="464.26" fill="#132e65"></circle><circle r="5" cx="108.86" cy="530.24" fill="#132e65"></circle><circle r="5" cx="115.97" cy="583.66" fill="#132e65"></circle><circle r="5" cx="173.37" cy="314.92" fill="#132e65"></circle><circle r="5" cx="171.51" cy="391.25" fill="#132e65"></circle><circle r="5" cx="192.41" cy="453.63" fill="#132e65"></circle><circle r="5" cx="179.82" cy="539.79" fill="#132e65"></circle><circle r="5" cx="176.55" cy="604.24" fill="#132e65"></circle><circle r="5" cx="259.42" cy="176.03" fill="#132e65"></circle><circle r="5" cx="228.83" cy="232.45" fill="#132e65"></circle><circle r="5" cx="239.42" cy="315.16" fill="#132e65"></circle><circle r="5" cx="248.44" cy="372.58" fill="#132e65"></circle><circle r="5" cx="257.45" cy="453.29" fill="#132e65"></circle><circle r="5" cx="241.42" cy="529.01" fill="#132e65"></circle><circle r="5" cx="228.79" cy="610.9" fill="#132e65"></circle><circle r="5" cx="307.17" cy="-37" fill="#132e65"></circle><circle r="5" cx="309.21" cy="17.96" fill="#132e65"></circle><circle r="5" cx="310.81" cy="118.45" fill="#132e65"></circle><circle r="5" cx="299.79" cy="175.02" fill="#132e65"></circle><circle r="5" cx="329.9" cy="250.49" fill="#132e65"></circle><circle r="5" cx="304.81" cy="304.04" fill="#132e65"></circle><circle r="5" cx="322.62" cy="380.24" fill="#132e65"></circle><circle r="5" cx="321.91" cy="458.23" fill="#132e65"></circle><circle r="5" cx="308.15" cy="528.16" fill="#132e65"></circle><circle r="5" cx="329.59" cy="579.7" fill="#132e65"></circle><circle r="5" cx="393.75" cy="-40.47" fill="#132e65"></circle><circle r="5" cx="384.04" cy="18.56" fill="#132e65"></circle><circle r="5" cx="400.86" cy="184.2" fill="#132e65"></circle><circle r="5" cx="394.33" cy="227.98" fill="#132e65"></circle><circle r="5" cx="388.97" cy="320.65" fill="#132e65"></circle><circle r="5" cx="390.16" cy="377.37" fill="#132e65"></circle><circle r="5" cx="400.59" cy="457.36" fill="#132e65"></circle><circle r="5" cx="398.84" cy="586.14" fill="#132e65"></circle><circle r="5" cx="462.52" cy="-27.56" fill="#132e65"></circle><circle r="5" cx="455.97" cy="27.03" fill="#132e65"></circle><circle r="5" cx="463.45" cy="119.14" fill="#132e65"></circle><circle r="5" cx="450.22" cy="184.82" fill="#132e65"></circle><circle r="5" cx="450.07" cy="307.51" fill="#132e65"></circle><circle r="5" cx="448.12" cy="380.65" fill="#132e65"></circle><circle r="5" cx="466.22" cy="542.2" fill="#132e65"></circle><circle r="5" cx="465.91" cy="582.36" fill="#132e65"></circle><circle r="5" cx="533.73" cy="-52.17" fill="#132e65"></circle><circle r="5" cx="522.75" cy="25.35" fill="#132e65"></circle><circle r="5" cx="520.18" cy="99.03" fill="#132e65"></circle><circle r="5" cx="510.86" cy="182.53" fill="#132e65"></circle><circle r="5" cx="514.89" cy="253.09" fill="#132e65"></circle><circle r="5" cx="526.89" cy="330.55" fill="#132e65"></circle><circle r="5" cx="518.65" cy="388.8" fill="#132e65"></circle><circle r="5" cx="508.91" cy="529.99" fill="#132e65"></circle><circle r="5" cx="542.13" cy="587.42" fill="#132e65"></circle><path d="M25.73 590.77L25.73 590.77" stroke="hsl(228.5, 77.2%, 51.5%)" stroke-width="1.5"></path><path d="M25.73 590.77L-41.39 601.5" stroke="hsl(228.5, 77.2%, 51.5%)" stroke-width="1.5"></path><path d="M25.73 590.77L22.9 515.95" stroke="hsl(228.5, 77.2%, 51.5%)" stroke-width="1.5"></path><path d="M328.54 456.59L328.54 456.59" stroke="hsl(228.5, 77.2%, 51.5%)" stroke-width="1.5"></path><path d="M328.54 456.59L322.3 514.57" stroke="hsl(228.5, 77.2%, 51.5%)" stroke-width="1.5"></path><path d="M328.54 456.59L401.21 451.75" stroke="hsl(228.5, 77.2%, 51.5%)" stroke-width="1.5"></path><path d="M328.54 456.59L250.21 460.69" stroke="hsl(228.5, 77.2%, 51.5%)" stroke-width="1.5"></path><path d="M328.54 456.59L322.77 367.78" stroke="hsl(228.5, 77.2%, 51.5%)" stroke-width="1.5"></path><path d="M328.54 456.59L389.85 522.15" stroke="hsl(228.5, 77.2%, 51.5%)" stroke-width="1.5"></path><path d="M301.55 591.97L301.55 591.97" stroke="hsl(228.5, 77.2%, 51.5%)" stroke-width="1.5"></path><path d="M301.55 591.97L254.14 579.75" stroke="hsl(228.5, 77.2%, 51.5%)" stroke-width="1.5"></path><path d="M301.55 591.97L322.3 514.57" stroke="hsl(228.5, 77.2%, 51.5%)" stroke-width="1.5"></path><path d="M301.55 591.97L248.8 531.21" stroke="hsl(228.5, 77.2%, 51.5%)" stroke-width="1.5"></path><path d="M301.55 591.97L383.3 595.17" stroke="hsl(228.5, 77.2%, 51.5%)" stroke-width="1.5"></path><path d="M446.49 -27.11L446.49 -27.11" stroke="hsl(228.5, 77.2%, 51.5%)" stroke-width="1.5"></path><path d="M446.49 -27.11L394.1 -22.29" stroke="hsl(228.5, 77.2%, 51.5%)" stroke-width="1.5"></path><path d="M446.49 -27.11L455.81 39.66" stroke="hsl(228.5, 77.2%, 51.5%)" stroke-width="1.5"></path><path d="M446.49 -27.11L517.38 -44.58" stroke="hsl(228.5, 77.2%, 51.5%)" stroke-width="1.5"></path><path d="M446.49 -27.11L384.55 33.03" stroke="hsl(228.5, 77.2%, 51.5%)" stroke-width="1.5"></path><path d="M446.49 -27.11L525 32.52" stroke="hsl(228.5, 77.2%, 51.5%)" stroke-width="1.5"></path><path d="M441.77 254.21L441.77 254.21" stroke="hsl(228.5, 77.2%, 51.5%)" stroke-width="1.5"></path><path d="M441.77 254.21L373.72 237.08" stroke="hsl(228.5, 77.2%, 51.5%)" stroke-width="1.5"></path><path d="M441.77 254.21L398.92 323.56" stroke="hsl(228.5, 77.2%, 51.5%)" stroke-width="1.5"></path><path d="M441.77 254.21L538.2 322.35" stroke="hsl(228.5, 77.2%, 51.5%)" stroke-width="1.5"></path><path d="M-44.13 521.53L-44.13 521.53" stroke="hsl(228.5, 77.2%, 51.5%)" stroke-width="1.5"></path><path d="M-44.13 521.53L22.9 515.95" stroke="hsl(228.5, 77.2%, 51.5%)" stroke-width="1.5"></path><path d="M-44.13 521.53L-41.39 601.5" stroke="hsl(228.5, 77.2%, 51.5%)" stroke-width="1.5"></path><path d="M-44.13 521.53L30.21 464.19" stroke="hsl(228.5, 77.2%, 51.5%)" stroke-width="1.5"></path><path d="M-44.13 521.53L25.73 590.77" stroke="hsl(228.5, 77.2%, 51.5%)" stroke-width="1.5"></path><path d="M-41.39 601.5L-41.39 601.5" stroke="hsl(228.5, 77.2%, 51.5%)" stroke-width="1.5"></path><path d="M30.21 464.19L30.21 464.19" stroke="hsl(228.5, 77.2%, 51.5%)" stroke-width="1.5"></path><path d="M30.21 464.19L22.9 515.95" stroke="hsl(228.5, 77.2%, 51.5%)" stroke-width="1.5"></path><path d="M30.21 464.19L107.88 449.02" stroke="hsl(228.5, 77.2%, 51.5%)" stroke-width="1.5"></path><path d="M22.9 515.95L22.9 515.95" stroke="hsl(228.5, 77.2%, 51.5%)" stroke-width="1.5"></path><path d="M107.88 449.02L107.88 449.02" stroke="hsl(228.5, 77.2%, 51.5%)" stroke-width="1.5"></path><path d="M107.88 449.02L165.85 453.15" stroke="hsl(228.5, 77.2%, 51.5%)" stroke-width="1.5"></path><path d="M107.88 449.02L113.93 537.49" stroke="hsl(228.5, 77.2%, 51.5%)" stroke-width="1.5"></path><path d="M107.88 449.02L173.11 510.42" stroke="hsl(228.5, 77.2%, 51.5%)" stroke-width="1.5"></path><path d="M113.93 537.49L113.93 537.49" stroke="hsl(228.5, 77.2%, 51.5%)" stroke-width="1.5"></path><path d="M113.93 537.49L117.1 580.59" stroke="hsl(228.5, 77.2%, 51.5%)" stroke-width="1.5"></path><path d="M113.93 537.49L173.11 510.42" stroke="hsl(228.5, 77.2%, 51.5%)" stroke-width="1.5"></path><path d="M113.93 537.49L190.09 579.5" stroke="hsl(228.5, 77.2%, 51.5%)" stroke-width="1.5"></path><path d="M117.1 580.59L117.1 580.59" stroke="hsl(228.5, 77.2%, 51.5%)" stroke-width="1.5"></path><path d="M117.1 580.59L190.09 579.5" stroke="hsl(228.5, 77.2%, 51.5%)" stroke-width="1.5"></path><path d="M117.1 580.59L173.11 510.42" stroke="hsl(228.5, 77.2%, 51.5%)" stroke-width="1.5"></path><path d="M165.85 453.15L165.85 453.15" stroke="hsl(228.5, 77.2%, 51.5%)" stroke-width="1.5"></path><path d="M165.85 453.15L173.11 510.42" stroke="hsl(228.5, 77.2%, 51.5%)" stroke-width="1.5"></path><path d="M165.85 453.15L250.21 460.69" stroke="hsl(228.5, 77.2%, 51.5%)" stroke-width="1.5"></path><path d="M165.85 453.15L113.93 537.49" stroke="hsl(228.5, 77.2%, 51.5%)" stroke-width="1.5"></path><path d="M173.11 510.42L173.11 510.42" stroke="hsl(228.5, 77.2%, 51.5%)" stroke-width="1.5"></path><path d="M173.11 510.42L190.09 579.5" stroke="hsl(228.5, 77.2%, 51.5%)" stroke-width="1.5"></path><path d="M173.11 510.42L248.8 531.21" stroke="hsl(228.5, 77.2%, 51.5%)" stroke-width="1.5"></path><path d="M190.09 579.5L190.09 579.5" stroke="hsl(228.5, 77.2%, 51.5%)" stroke-width="1.5"></path><path d="M190.09 579.5L254.14 579.75" stroke="hsl(228.5, 77.2%, 51.5%)" stroke-width="1.5"></path><path d="M190.09 579.5L248.8 531.21" stroke="hsl(228.5, 77.2%, 51.5%)" stroke-width="1.5"></path><path d="M238.93 370.49L238.93 370.49" stroke="hsl(228.5, 77.2%, 51.5%)" stroke-width="1.5"></path><path d="M238.93 370.49L301.79 323.5" stroke="hsl(228.5, 77.2%, 51.5%)" stroke-width="1.5"></path><path d="M250.21 460.69L250.21 460.69" stroke="hsl(228.5, 77.2%, 51.5%)" stroke-width="1.5"></path><path d="M250.21 460.69L248.8 531.21" stroke="hsl(228.5, 77.2%, 51.5%)" stroke-width="1.5"></path><path d="M250.21 460.69L322.3 514.57" stroke="hsl(228.5, 77.2%, 51.5%)" stroke-width="1.5"></path><path d="M250.21 460.69L238.93 370.49" stroke="hsl(228.5, 77.2%, 51.5%)" stroke-width="1.5"></path><path d="M250.21 460.69L173.11 510.42" stroke="hsl(228.5, 77.2%, 51.5%)" stroke-width="1.5"></path><path d="M248.8 531.21L248.8 531.21" stroke="hsl(228.5, 77.2%, 51.5%)" stroke-width="1.5"></path><path d="M248.8 531.21L254.14 579.75" stroke="hsl(228.5, 77.2%, 51.5%)" stroke-width="1.5"></path><path d="M254.14 579.75L254.14 579.75" stroke="hsl(228.5, 77.2%, 51.5%)" stroke-width="1.5"></path><path d="M301.79 323.5L301.79 323.5" stroke="hsl(228.5, 77.2%, 51.5%)" stroke-width="1.5"></path><path d="M301.79 323.5L322.77 367.78" stroke="hsl(228.5, 77.2%, 51.5%)" stroke-width="1.5"></path><path d="M301.79 323.5L398.92 323.56" stroke="hsl(228.5, 77.2%, 51.5%)" stroke-width="1.5"></path><path d="M301.79 323.5L394.07 386.54" stroke="hsl(228.5, 77.2%, 51.5%)" stroke-width="1.5"></path><path d="M322.77 367.78L322.77 367.78" stroke="hsl(228.5, 77.2%, 51.5%)" stroke-width="1.5"></path><path d="M322.77 367.78L394.07 386.54" stroke="hsl(228.5, 77.2%, 51.5%)" stroke-width="1.5"></path><path d="M322.77 367.78L238.93 370.49" stroke="hsl(228.5, 77.2%, 51.5%)" stroke-width="1.5"></path><path d="M322.77 367.78L398.92 323.56" stroke="hsl(228.5, 77.2%, 51.5%)" stroke-width="1.5"></path><path d="M322.77 367.78L401.21 451.75" stroke="hsl(228.5, 77.2%, 51.5%)" stroke-width="1.5"></path><path d="M322.3 514.57L322.3 514.57" stroke="hsl(228.5, 77.2%, 51.5%)" stroke-width="1.5"></path><path d="M322.3 514.57L389.85 522.15" stroke="hsl(228.5, 77.2%, 51.5%)" stroke-width="1.5"></path><path d="M322.3 514.57L248.8 531.21" stroke="hsl(228.5, 77.2%, 51.5%)" stroke-width="1.5"></path><path d="M394.1 -22.29L394.1 -22.29" stroke="hsl(228.5, 77.2%, 51.5%)" stroke-width="1.5"></path><path d="M394.1 -22.29L384.55 33.03" stroke="hsl(228.5, 77.2%, 51.5%)" stroke-width="1.5"></path><path d="M394.1 -22.29L455.81 39.66" stroke="hsl(228.5, 77.2%, 51.5%)" stroke-width="1.5"></path><path d="M384.55 33.03L384.55 33.03" stroke="hsl(228.5, 77.2%, 51.5%)" stroke-width="1.5"></path><path d="M384.55 33.03L455.81 39.66" stroke="hsl(228.5, 77.2%, 51.5%)" stroke-width="1.5"></path><path d="M384.55 33.03L392.31 114.65" stroke="hsl(228.5, 77.2%, 51.5%)" stroke-width="1.5"></path><path d="M392.31 114.65L392.31 114.65" stroke="hsl(228.5, 77.2%, 51.5%)" stroke-width="1.5"></path><path d="M392.31 114.65L461.34 88.53" stroke="hsl(228.5, 77.2%, 51.5%)" stroke-width="1.5"></path><path d="M392.31 114.65L455.81 39.66" stroke="hsl(228.5, 77.2%, 51.5%)" stroke-width="1.5"></path><path d="M392.31 114.65L373.72 237.08" stroke="hsl(228.5, 77.2%, 51.5%)" stroke-width="1.5"></path><path d="M392.31 114.65L394.1 -22.29" stroke="hsl(228.5, 77.2%, 51.5%)" stroke-width="1.5"></path><path d="M373.72 237.08L373.72 237.08" stroke="hsl(228.5, 77.2%, 51.5%)" stroke-width="1.5"></path><path d="M373.72 237.08L398.92 323.56" stroke="hsl(228.5, 77.2%, 51.5%)" stroke-width="1.5"></path><path d="M373.72 237.08L301.79 323.5" stroke="hsl(228.5, 77.2%, 51.5%)" stroke-width="1.5"></path><path d="M398.92 323.56L398.92 323.56" stroke="hsl(228.5, 77.2%, 51.5%)" stroke-width="1.5"></path><path d="M398.92 323.56L394.07 386.54" stroke="hsl(228.5, 77.2%, 51.5%)" stroke-width="1.5"></path><path d="M394.07 386.54L394.07 386.54" stroke="hsl(228.5, 77.2%, 51.5%)" stroke-width="1.5"></path><path d="M394.07 386.54L458.28 392.18" stroke="hsl(228.5, 77.2%, 51.5%)" stroke-width="1.5"></path><path d="M394.07 386.54L401.21 451.75" stroke="hsl(228.5, 77.2%, 51.5%)" stroke-width="1.5"></path><path d="M394.07 386.54L328.54 456.59" stroke="hsl(228.5, 77.2%, 51.5%)" stroke-width="1.5"></path><path d="M394.07 386.54L455.55 465.73" stroke="hsl(228.5, 77.2%, 51.5%)" stroke-width="1.5"></path><path d="M401.21 451.75L401.21 451.75" stroke="hsl(228.5, 77.2%, 51.5%)" stroke-width="1.5"></path><path d="M401.21 451.75L455.55 465.73" stroke="hsl(228.5, 77.2%, 51.5%)" stroke-width="1.5"></path><path d="M401.21 451.75L389.85 522.15" stroke="hsl(228.5, 77.2%, 51.5%)" stroke-width="1.5"></path><path d="M389.85 522.15L389.85 522.15" stroke="hsl(228.5, 77.2%, 51.5%)" stroke-width="1.5"></path><path d="M389.85 522.15L383.3 595.17" stroke="hsl(228.5, 77.2%, 51.5%)" stroke-width="1.5"></path><path d="M389.85 522.15L472.06 520.99" stroke="hsl(228.5, 77.2%, 51.5%)" stroke-width="1.5"></path><path d="M389.85 522.15L455.55 465.73" stroke="hsl(228.5, 77.2%, 51.5%)" stroke-width="1.5"></path><path d="M383.3 595.17L383.3 595.17" stroke="hsl(228.5, 77.2%, 51.5%)" stroke-width="1.5"></path><path d="M383.3 595.17L455.47 588.85" stroke="hsl(228.5, 77.2%, 51.5%)" stroke-width="1.5"></path><path d="M455.81 39.66L455.81 39.66" stroke="hsl(228.5, 77.2%, 51.5%)" stroke-width="1.5"></path><path d="M455.81 39.66L461.34 88.53" stroke="hsl(228.5, 77.2%, 51.5%)" stroke-width="1.5"></path><path d="M455.81 39.66L525 32.52" stroke="hsl(228.5, 77.2%, 51.5%)" stroke-width="1.5"></path><path d="M461.34 88.53L461.34 88.53" stroke="hsl(228.5, 77.2%, 51.5%)" stroke-width="1.5"></path><path d="M461.34 88.53L525 32.52" stroke="hsl(228.5, 77.2%, 51.5%)" stroke-width="1.5"></path><path d="M458.28 392.18L458.28 392.18" stroke="hsl(228.5, 77.2%, 51.5%)" stroke-width="1.5"></path><path d="M458.28 392.18L455.55 465.73" stroke="hsl(228.5, 77.2%, 51.5%)" stroke-width="1.5"></path><path d="M458.28 392.18L535.8 374.16" stroke="hsl(228.5, 77.2%, 51.5%)" stroke-width="1.5"></path><path d="M458.28 392.18L401.21 451.75" stroke="hsl(228.5, 77.2%, 51.5%)" stroke-width="1.5"></path><path d="M455.55 465.73L455.55 465.73" stroke="hsl(228.5, 77.2%, 51.5%)" stroke-width="1.5"></path><path d="M472.06 520.99L472.06 520.99" stroke="hsl(228.5, 77.2%, 51.5%)" stroke-width="1.5"></path><path d="M472.06 520.99L455.55 465.73" stroke="hsl(228.5, 77.2%, 51.5%)" stroke-width="1.5"></path><path d="M472.06 520.99L455.47 588.85" stroke="hsl(228.5, 77.2%, 51.5%)" stroke-width="1.5"></path><path d="M472.06 520.99L525.76 453" stroke="hsl(228.5, 77.2%, 51.5%)" stroke-width="1.5"></path><path d="M472.06 520.99L401.21 451.75" stroke="hsl(228.5, 77.2%, 51.5%)" stroke-width="1.5"></path><path d="M472.06 520.99L532.27 606.66" stroke="hsl(228.5, 77.2%, 51.5%)" stroke-width="1.5"></path><path d="M455.47 588.85L455.47 588.85" stroke="hsl(228.5, 77.2%, 51.5%)" stroke-width="1.5"></path><path d="M455.47 588.85L532.27 606.66" stroke="hsl(228.5, 77.2%, 51.5%)" stroke-width="1.5"></path><path d="M455.47 588.85L389.85 522.15" stroke="hsl(228.5, 77.2%, 51.5%)" stroke-width="1.5"></path><path d="M455.47 588.85L455.55 465.73" stroke="hsl(228.5, 77.2%, 51.5%)" stroke-width="1.5"></path><path d="M517.38 -44.58L517.38 -44.58" stroke="hsl(228.5, 77.2%, 51.5%)" stroke-width="1.5"></path><path d="M517.38 -44.58L525 32.52" stroke="hsl(228.5, 77.2%, 51.5%)" stroke-width="1.5"></path><path d="M517.38 -44.58L455.81 39.66" stroke="hsl(228.5, 77.2%, 51.5%)" stroke-width="1.5"></path><path d="M517.38 -44.58L394.1 -22.29" stroke="hsl(228.5, 77.2%, 51.5%)" stroke-width="1.5"></path><path d="M525 32.52L525 32.52" stroke="hsl(228.5, 77.2%, 51.5%)" stroke-width="1.5"></path><path d="M537.78 169.26L537.78 169.26" stroke="hsl(228.5, 77.2%, 51.5%)" stroke-width="1.5"></path><path d="M537.78 169.26L461.34 88.53" stroke="hsl(228.5, 77.2%, 51.5%)" stroke-width="1.5"></path><path d="M537.78 169.26L441.77 254.21" stroke="hsl(228.5, 77.2%, 51.5%)" stroke-width="1.5"></path><path d="M537.78 169.26L525 32.52" stroke="hsl(228.5, 77.2%, 51.5%)" stroke-width="1.5"></path><path d="M538.2 322.35L538.2 322.35" stroke="hsl(228.5, 77.2%, 51.5%)" stroke-width="1.5"></path><path d="M538.2 322.35L535.8 374.16" stroke="hsl(228.5, 77.2%, 51.5%)" stroke-width="1.5"></path><path d="M538.2 322.35L458.28 392.18" stroke="hsl(228.5, 77.2%, 51.5%)" stroke-width="1.5"></path><path d="M535.8 374.16L535.8 374.16" stroke="hsl(228.5, 77.2%, 51.5%)" stroke-width="1.5"></path><path d="M535.8 374.16L525.76 453" stroke="hsl(228.5, 77.2%, 51.5%)" stroke-width="1.5"></path><path d="M535.8 374.16L455.55 465.73" stroke="hsl(228.5, 77.2%, 51.5%)" stroke-width="1.5"></path><path d="M535.8 374.16L394.07 386.54" stroke="hsl(228.5, 77.2%, 51.5%)" stroke-width="1.5"></path><path d="M535.8 374.16L398.92 323.56" stroke="hsl(228.5, 77.2%, 51.5%)" stroke-width="1.5"></path><path d="M525.76 453L525.76 453" stroke="hsl(228.5, 77.2%, 51.5%)" stroke-width="1.5"></path><path d="M525.76 453L455.55 465.73" stroke="hsl(228.5, 77.2%, 51.5%)" stroke-width="1.5"></path><path d="M525.76 453L458.28 392.18" stroke="hsl(228.5, 77.2%, 51.5%)" stroke-width="1.5"></path><path d="M525.76 453L401.21 451.75" stroke="hsl(228.5, 77.2%, 51.5%)" stroke-width="1.5"></path><path d="M532.27 606.66L532.27 606.66" stroke="hsl(228.5, 77.2%, 51.5%)" stroke-width="1.5"></path><path d="M532.27 606.66L383.3 595.17" stroke="hsl(228.5, 77.2%, 51.5%)" stroke-width="1.5"></path><path d="M532.27 606.66L525.76 453" stroke="hsl(228.5, 77.2%, 51.5%)" stroke-width="1.5"></path><circle r="25" cx="25.73" cy="590.77" fill="url(#SvgjsRadialGradient1043)"></circle><circle r="25" cx="328.54" cy="456.59" fill="url(#SvgjsRadialGradient1043)"></circle><circle r="25" cx="301.55" cy="591.97" fill="url(#SvgjsRadialGradient1043)"></circle><circle r="25" cx="446.49" cy="-27.11" fill="url(#SvgjsRadialGradient1043)"></circle><circle r="25" cx="441.77" cy="254.21" fill="url(#SvgjsRadialGradient1043)"></circle><circle r="5" cx="-44.13" cy="521.53" fill="#8b9ad9"></circle><circle r="5" cx="-41.39" cy="601.5" fill="#8b9ad9"></circle><circle r="5" cx="30.21" cy="464.19" fill="#8b9ad9"></circle><circle r="5" cx="22.9" cy="515.95" fill="#8b9ad9"></circle><circle r="5" cx="107.88" cy="449.02" fill="#8b9ad9"></circle><circle r="5" cx="113.93" cy="537.49" fill="#8b9ad9"></circle><circle r="5" cx="117.1" cy="580.59" fill="#8b9ad9"></circle><circle r="5" cx="165.85" cy="453.15" fill="#8b9ad9"></circle><circle r="5" cx="173.11" cy="510.42" fill="#8b9ad9"></circle><circle r="5" cx="190.09" cy="579.5" fill="#8b9ad9"></circle><circle r="5" cx="238.93" cy="370.49" fill="#8b9ad9"></circle><circle r="5" cx="250.21" cy="460.69" fill="#8b9ad9"></circle><circle r="5" cx="248.8" cy="531.21" fill="#8b9ad9"></circle><circle r="5" cx="254.14" cy="579.75" fill="#8b9ad9"></circle><circle r="5" cx="301.79" cy="323.5" fill="#8b9ad9"></circle><circle r="5" cx="322.77" cy="367.78" fill="#8b9ad9"></circle><circle r="5" cx="322.3" cy="514.57" fill="#8b9ad9"></circle><circle r="5" cx="394.1" cy="-22.29" fill="#8b9ad9"></circle><circle r="5" cx="384.55" cy="33.03" fill="#8b9ad9"></circle><circle r="5" cx="392.31" cy="114.65" fill="#8b9ad9"></circle><circle r="5" cx="373.72" cy="237.08" fill="#8b9ad9"></circle><circle r="5" cx="398.92" cy="323.56" fill="#8b9ad9"></circle><circle r="5" cx="394.07" cy="386.54" fill="#8b9ad9"></circle><circle r="5" cx="401.21" cy="451.75" fill="#8b9ad9"></circle><circle r="5" cx="389.85" cy="522.15" fill="#8b9ad9"></circle><circle r="5" cx="383.3" cy="595.17" fill="#8b9ad9"></circle><circle r="5" cx="455.81" cy="39.66" fill="#8b9ad9"></circle><circle r="5" cx="461.34" cy="88.53" fill="#8b9ad9"></circle><circle r="5" cx="458.28" cy="392.18" fill="#8b9ad9"></circle><circle r="5" cx="455.55" cy="465.73" fill="#8b9ad9"></circle><circle r="5" cx="472.06" cy="520.99" fill="#8b9ad9"></circle><circle r="5" cx="455.47" cy="588.85" fill="#8b9ad9"></circle><circle r="5" cx="517.38" cy="-44.58" fill="#8b9ad9"></circle><circle r="5" cx="525" cy="32.52" fill="#8b9ad9"></circle><circle r="5" cx="537.78" cy="169.26" fill="#8b9ad9"></circle><circle r="5" cx="538.2" cy="322.35" fill="#8b9ad9"></circle><circle r="5" cx="535.8" cy="374.16" fill="#8b9ad9"></circle><circle r="5" cx="525.76" cy="453" fill="#8b9ad9"></circle><circle r="5" cx="532.27" cy="606.66" fill="#8b9ad9"></circle></g><defs><mask id="SvgjsMask1042"><rect width="480" height="560" fill="#ffffff"></rect></mask><radialGradient id="SvgjsRadialGradient1043"><stop stop-color="#ffffff" offset="0.1"></stop><stop stop-color="#1735b3" offset="0.2"></stop><stop stop-color="rgba(23, 53, 179, 0)" offset="1"></stop></radialGradient></defs></svg>